<svg xmlns="http://www.w3.org/2000/svg" width="1600" height="6053" viewBox="0 0 1600 6053" fill="none"><g clip-path="url(#clip0_80_10)"><path d="M1600 0H0V6053H1600V0Z" fill="#040206"></path><g opacity="0.5" filter="url(#filter0_f_80_10)"><path opacity="0.5" d="M799.5 3209C990.314 3209 1145 3054.31 1145 2863.5C1145 2672.69 990.314 2518 799.5 2518C608.686 2518 454 2672.69 454 2863.5C454 3054.31 608.686 3209 799.5 3209Z" fill="url(#paint0_linear_80_10)"></path></g><path d="M1600 1099H0V1946H1600V1099Z" fill="#040206"></path><path d="M1600 5993H0V4319H1600V5993Z" fill="url(#paint1_linear_80_10)"></path><path d="M1600 5973H0V9210H1600V5973Z" fill="url(#paint2_linear_80_10)"></path><g opacity="0.3" filter="url(#filter1_f_80_10)"><path opacity="0.3" d="M247.5 1154C438.314 1154 593 999.314 593 808.5C593 617.686 438.314 463 247.5 463C56.6856 463 -98 617.686 -98 808.5C-98 999.314 56.6856 1154 247.5 1154Z" fill="url(#paint3_linear_80_10)"></path></g><g opacity="0.6" filter="url(#filter2_f_80_10)"><path opacity="0.4" d="M1165.5 832C1405.47 832 1600 637.468 1600 397.5C1600 157.532 1405.47 -37 1165.5 -37C925.532 -37 731 157.532 731 397.5C731 637.468 925.532 832 1165.5 832Z" fill="url(#paint4_linear_80_10)"></path></g><g opacity="0.5" filter="url(#filter3_f_80_10)"><path opacity="0.5" d="M1635.5 5407C1799.8 5407 1933 5276.04 1933 5114.5C1933 4952.96 1799.8 4822 1635.5 4822C1471.2 4822 1338 4952.96 1338 5114.5C1338 5276.04 1471.2 5407 1635.5 5407Z" fill="url(#paint5_linear_80_10)"></path></g><g opacity="0.4" filter="url(#filter4_f_80_10)"><path opacity="0.4" d="M1737.5 1863C1928.31 1863 2083 1708.31 2083 1517.5C2083 1326.69 1928.31 1172 1737.5 1172C1546.69 1172 1392 1326.69 1392 1517.5C1392 1708.31 1546.69 1863 1737.5 1863Z" fill="url(#paint6_linear_80_10)"></path></g><g opacity="0.3" filter="url(#filter5_f_80_10)"><path opacity="0.3" d="M187.5 4681C378.314 4681 533 4526.31 533 4335.5C533 4144.69 378.314 3990 187.5 3990C-3.31438 3990 -158 4144.69 -158 4335.5C-158 4526.31 -3.31438 4681 187.5 4681Z" fill="url(#paint7_linear_80_10)"></path></g><g opacity="0.4" filter="url(#filter6_f_80_10)"><path opacity="0.4" d="M688.5 5858C879.314 5858 1034 5703.31 1034 5512.5C1034 5321.69 879.314 5167 688.5 5167C497.686 5167 343 5321.69 343 5512.5C343 5703.31 497.686 5858 688.5 5858Z" fill="url(#paint8_linear_80_10)"></path></g></g><defs><filter id="filter0_f_80_10" x="-310" y="1754" width="2219" height="2219" filterUnits="userSpaceOnUse" color-interpolation-filters="sRGB"><feGaussianBlur stdDeviation="382"></feGaussianBlur></filter><filter id="filter1_f_80_10" x="-862" y="-301" width="2219" height="2219" filterUnits="userSpaceOnUse" color-interpolation-filters="sRGB"><feGaussianBlur stdDeviation="382"></feGaussianBlur></filter><filter id="filter2_f_80_10" x="-33" y="-801" width="2397" height="2397" filterUnits="userSpaceOnUse" color-interpolation-filters="sRGB"><feGaussianBlur stdDeviation="382"></feGaussianBlur></filter><filter id="filter3_f_80_10" x="574" y="4058" width="2123" height="2113" filterUnits="userSpaceOnUse" color-interpolation-filters="sRGB"><feGaussianBlur stdDeviation="382"></feGaussianBlur></filter><filter id="filter4_f_80_10" x="628" y="408" width="2219" height="2219" filterUnits="userSpaceOnUse" color-interpolation-filters="sRGB"><feGaussianBlur stdDeviation="382"></feGaussianBlur></filter><filter id="filter5_f_80_10" x="-922" y="3226" width="2219" height="2219" filterUnits="userSpaceOnUse" color-interpolation-filters="sRGB"><feGaussianBlur stdDeviation="382"></feGaussianBlur></filter><filter id="filter6_f_80_10" x="-421" y="4403" width="2219" height="2219" filterUnits="userSpaceOnUse" color-interpolation-filters="sRGB"><feGaussianBlur stdDeviation="382"></feGaussianBlur></filter><linearGradient id="paint0_linear_80_10" x1="454" y1="3209" x2="1145" y2="2518" gradientUnits="userSpaceOnUse"><stop stop-color="#28E0B2"></stop><stop offset="1" stop-color="#28B4E0"></stop></linearGradient><linearGradient id="paint1_linear_80_10" x1="800" y1="5993" x2="800" y2="4319" gradientUnits="userSpaceOnUse"><stop stop-color="#1C1B2E"></stop><stop offset="1"></stop></linearGradient><linearGradient id="paint2_linear_80_10" x1="800" y1="5973" x2="800" y2="9210" gradientUnits="userSpaceOnUse"><stop stop-color="#1C1B2E"></stop><stop offset="1"></stop></linearGradient><linearGradient id="paint3_linear_80_10" x1="-98" y1="1154" x2="593" y2="463" gradientUnits="userSpaceOnUse"><stop stop-color="#28E0B2"></stop><stop offset="1" stop-color="#28B4E0"></stop></linearGradient><linearGradient id="paint4_linear_80_10" x1="731" y1="832" x2="1600" y2="-37" gradientUnits="userSpaceOnUse"><stop stop-color="#28E0B2"></stop><stop offset="1" stop-color="#28B4E0"></stop></linearGradient><linearGradient id="paint5_linear_80_10" x1="1338" y1="5407" x2="1922.92" y2="4812.09" gradientUnits="userSpaceOnUse"><stop stop-color="#28E0B2"></stop><stop offset="1" stop-color="#28B4E0"></stop></linearGradient><linearGradient id="paint6_linear_80_10" x1="1392" y1="1863" x2="2083" y2="1172" gradientUnits="userSpaceOnUse"><stop stop-color="#28E0B2"></stop><stop offset="1" stop-color="#28B4E0"></stop></linearGradient><linearGradient id="paint7_linear_80_10" x1="-158" y1="4681" x2="533" y2="3990" gradientUnits="userSpaceOnUse"><stop stop-color="#28E0B2"></stop><stop offset="1" stop-color="#28B4E0"></stop></linearGradient><linearGradient id="paint8_linear_80_10" x1="343" y1="5858" x2="1034" y2="5167" gradientUnits="userSpaceOnUse"><stop stop-color="#28E0B2"></stop><stop offset="1" stop-color="#28B4E0"></stop></linearGradient><clipPath id="clip0_80_10"><rect width="1600" height="6053" fill="white"></rect></clipPath></defs></svg>