<svg xmlns="http://www.w3.org/2000/svg" width="243" height="243" viewBox="0 0 243 243" fill="none"><g filter="url(#filter0_d_207_116)"><path d="M121.277 123.466C114.534 123.46 108.05 120.864 103.166 116.215C98.2822 111.565 95.3706 105.217 95.033 98.4826C94.6954 91.7477 96.9576 85.1405 101.352 80.0259C105.747 74.9113 111.938 71.6801 118.647 71V81.6252C115.794 82.1078 113.129 83.3662 110.944 85.2626C108.759 87.159 107.138 89.6201 106.259 92.3765C105.379 95.1329 105.275 98.0782 105.958 100.89C106.641 103.701 108.085 106.271 110.131 108.316C112.176 110.362 114.746 111.805 117.558 112.488C120.369 113.17 123.314 113.066 126.071 112.186C128.827 111.306 131.288 109.685 133.184 107.499C135.08 105.314 136.338 102.649 136.82 99.7958H147.442C146.782 106.28 143.741 112.288 138.908 116.66C134.074 121.032 127.792 123.457 121.274 123.466H121.277ZM147.445 94.5358H136.82C136.274 91.3097 134.737 88.3335 132.424 86.02C130.11 83.7066 127.133 82.1706 123.907 81.6252V71C129.938 71.6169 135.573 74.2944 139.86 78.5811C144.148 82.8679 146.827 88.5018 147.445 94.5332V94.5358V94.5358Z" fill="url(#paint0_linear_207_116)"></path></g><defs><filter id="filter0_d_207_116" x="0" y="0" width="242.445" height="242.466" filterUnits="userSpaceOnUse" color-interpolation-filters="sRGB"><feGaussianBlur stdDeviation="47.5"></feGaussianBlur></filter><linearGradient id="paint0_linear_207_116" x1="95" y1="123.466" x2="147.466" y2="71.0208" gradientUnits="userSpaceOnUse"><stop stop-color="#28E0B2"></stop><stop offset="1" stop-color="#28E0B2"></stop></linearGradient></defs></svg>